Coordinates
version=1
nRows=9
nColumns=24
inDegrees=yes

Units are S.I. units (second, meters, Newtons, ...)
Angles are in degrees.

endheader
time	pelvis_tilt	pelvis_list	pelvis_rotation	pelvis_tx	pelvis_ty	pelvis_tz	hip_flexion_r	hip_adduction_r	hip_rotation_r	knee_angle_r	ankle_angle_r	subtalar_angle_r	mtp_angle_r	hip_flexion_l	hip_adduction_l	hip_rotation_l	knee_angle_l	ankle_angle_l	subtalar_angle_l	mtp_angle_l	lumbar_extension	lumbar_bending	lumbar_rotation
      1.12883333	     -1.00680899	      2.05492583	     -3.05076671	     -0.03913193	      0.97357882	      0.32695339	    -18.96810866	     -0.38181987	     -3.94021511	     -1.78709306	     19.76616209	      0.60599597	     -3.99691332	     24.19439271	      3.20495176	     -2.55185454	      3.90729209	     -3.60232853	     -9.34783549	     -1.63220905	    -12.53759914	      2.64759773	      8.34848819
      1.13300000	     -0.98139619	      2.20460096	     -3.01993804	     -0.03316610	      0.97276289	      0.32654701	    -19.11725829	     -0.60073859	     -4.19866134	     -2.31839570	     19.98692070	      0.94416684	     -3.92254766	     24.20370237	      3.45597123	     -2.44913346	      3.70522944	     -3.77187842	     -9.69654828	     -1.59317592	    -12.52811581	      2.46016806	      8.34213666
      1.13716667	     -0.95886295	      2.37560111	     -2.98860077	     -0.02717286	      0.97198189	      0.32613778	    -19.24914763	     -0.84394138	     -4.43018816	     -2.88168765	     20.19584258	      1.25575115	     -3.83949986	     24.22722298	      3.72655178	     -2.31973814	      3.41459489	     -4.00477250	    -10.09874399	     -1.54221640	    -12.52132027	      2.23733372	      8.31920715
      1.14133333	     -0.94919470	      2.55975704	     -2.95045152	     -0.02114914	      0.97122653	      0.32570235	    -19.34866198	     -1.10182690	     -4.66173512	     -3.48656153	     20.38478595	      1.55579774	     -3.74519544	     24.27772179	      4.01144618	     -2.16350778	      3.03545759	     -4.29186181	    -10.55691569	     -1.47826521	    -12.50218013	      2.00239125	      8.29088328
      1.14550000	     -0.92655267	      2.75926433	     -2.91035709	     -0.01509556	      0.97052648	      0.32525716	    -19.44272414	     -1.37856324	     -4.89936084	     -4.13579604	     20.55247607	      1.84741065	     -3.63246094	     24.32328099	      4.31232061	     -1.98788556	      2.58355599	     -4.64585882	    -11.08750299	     -1.39862334	    -12.48939597	      1.74760626	      8.25149712
      1.14966667	     -0.91250566	      2.96766510	     -2.86259851	     -0.00901294	      0.96985799	      0.32478714	    -19.50939980	     -1.66453876	     -5.13065228	     -4.82678100	     20.68568490	      2.11022874	     -3.48702998	     24.38930965	      4.62429348	     -1.78520761	      2.05855313	     -5.04193292	    -11.66447031	     -1.29484011	    -12.46752907	      1.47858942	      8.20616130
      1.15383333	     -0.90345214	      3.18718593	     -2.81373812	     -0.00290568	      0.96922335	      0.32430458	    -19.55633358	     -1.96406037	     -5.34474561	     -5.54861539	     20.79680576	      2.35270527	     -3.32499759	     24.47452102	      4.94696740	     -1.58817133	      1.46549344	     -5.51817156	    -12.28496369	     -1.18444863	    -12.43573382	      1.20315157	      8.14828848
      1.15800000	     -0.90135396	      3.41846268	     -2.76211473	      0.00323437	      0.96862484	      0.32380942	    -19.58624595	     -2.27565809	     -5.53810950	     -6.29190566	     20.88311663	      2.56660254	     -3.15243453	     24.58183694	      5.28108617	     -1.41046655	      0.80690467	     -6.06094797	    -12.92783614	     -1.07784289	    -12.39002482	      0.91536832	      8.08370615
      1.16216667	     -0.90428916	      3.65710813	     -2.70704612	      0.00939489	      0.96806249	      0.32330542	    -19.59112113	     -2.59531426	     -5.71865978	     -7.07872212	     20.92735345	      2.74033560	     -2.97032116	     24.70543583	      5.62252582	     -1.22811845	      0.09520149	     -6.63697712	    -13.59025427	     -0.97757943	    -12.33942833	      0.61051272	      8.00969679
